<?xml version="1.0" encoding="utf-8"?>
<!-- Generator: Adobe Illustrator 16.0.0, SVG Export Plug-In . SVG Version: 6.00 Build 0)  -->
<!DOCTYPE svg PUBLIC "-//W3C//DTD SVG 1.1//EN" "http://www.w3.org/Graphics/SVG/1.1/DTD/svg11.dtd">
<svg version="1.1" id="Layer_1" xmlns="http://www.w3.org/2000/svg" xmlns:xlink="http://www.w3.org/1999/xlink" x="0px" y="0px"
	 width="400px" height="493.262px" viewBox="0 0 400 493.262" enable-background="new 0 0 400 493.262" xml:space="preserve">
<polygon fill="#2E2473" points="400,190 210,278.599 210,193.599 400,105 "/>
<polygon fill="#2E2473" points="400,85 315,124.637 315,39.637 400,0 "/>
<polygon fill="#2E2473" points="190,278.599 0,190 0,105 190,193.599 "/>
<polygon fill="#2E2473" points="190,173.599 0,85 0,0 190,88.599 "/>
<polygon fill="#2E2473" points="190,383.599 0,295 0,210 190,298.599 "/>
<polygon fill="#2E2473" points="200,493.262 0,400 0,315 200,408.262 "/>
<polygon fill="#2E2473" points="400,400 200,493.262 200,408.262 400,315 "/>
<polygon fill="#2E2473" points="85,39.636 85,334.636 0,295 0,0 "/>
<polygon fill="#2E2473" points="400,105 400,400 315,439.637 315,144.637 "/>
</svg>
