<?xml version="1.0" encoding="utf-8"?>
<!-- Generator: Adobe Illustrator 16.0.0, SVG Export Plug-In . SVG Version: 6.00 Build 0)  -->
<!DOCTYPE svg PUBLIC "-//W3C//DTD SVG 1.1//EN" "http://www.w3.org/Graphics/SVG/1.1/DTD/svg11.dtd">
<svg version="1.1" id="Layer_2" xmlns="http://www.w3.org/2000/svg" xmlns:xlink="http://www.w3.org/1999/xlink" x="0px" y="0px"
	 width="1129.203px" height="328.832px" viewBox="0 0 1129.203 328.832" enable-background="new 0 0 1129.203 328.832"
	 xml:space="preserve">
<g>
	<g>
		<circle fill="#FFFFFF" cx="3.667" cy="147.667" r="3.667"/>
		<circle fill="#FFFFFF" cx="238.667" cy="179.666" r="3.667"/>
		<circle fill="#FFFFFF" cx="191.792" cy="196.791" r="3.667"/>
		<circle fill="#FFFFFF" cx="245.595" cy="186.406" r="3.667"/>
		<circle fill="#FFFFFF" cx="267.345" cy="210.906" r="3.667"/>
		<circle fill="#FFFFFF" cx="277.595" cy="236.156" r="3.667"/>
		<circle fill="#FFFFFF" cx="282.845" cy="242.406" r="3.667"/>
		<circle fill="#FFFFFF" cx="289.345" cy="267.447" r="3.667"/>
		<circle fill="#FFFFFF" cx="321.011" cy="236.156" r="3.667"/>
		<circle fill="#FFFFFF" cx="326.345" cy="252.156" r="3.667"/>
		<circle fill="#FFFFFF" cx="519.5" cy="316.72" r="3.667"/>
		<circle fill="#FFFFFF" cx="365.833" cy="287.387" r="3.667"/>
		<circle fill="#FFFFFF" cx="490.334" cy="275.781" r="3.667"/>
		<circle fill="#FFFFFF" cx="456.334" cy="263.406" r="3.667"/>
		<circle fill="#FFFFFF" cx="451.834" cy="252.781" r="3.667"/>
		<circle fill="#FFFFFF" cx="446.459" cy="243.531" r="3.667"/>
		<circle fill="#FFFFFF" cx="430.959" cy="243.531" r="3.667"/>
		<circle fill="#FFFFFF" cx="389.334" cy="204.125" r="3.667"/>
		<circle fill="#FFFFFF" cx="458.334" cy="204.125" r="3.667"/>
		<circle fill="#FFFFFF" cx="492.834" cy="174.459" r="3.667"/>
		<circle fill="#FFFFFF" cx="537.334" cy="140.625" r="3.667"/>
		<circle fill="#FFFFFF" cx="512.167" cy="16.625" r="3.667"/>
		<circle fill="#FFFFFF" cx="429.917" cy="39.875" r="3.667"/>
		<circle fill="#FFFFFF" cx="429.917" cy="49.208" r="3.667"/>
		<circle fill="#FFFFFF" cx="426.25" cy="56.542" r="3.667"/>
		<circle fill="#FFFFFF" cx="418.083" cy="73.875" r="3.667"/>
		<circle fill="#FFFFFF" cx="403.583" cy="103.208" r="3.667"/>
		<circle fill="#FFFFFF" cx="403.583" cy="112.042" r="3.667"/>
		<circle fill="#FFFFFF" cx="403.583" cy="120.542" r="3.667"/>
		<circle fill="#FFFFFF" cx="398.75" cy="133.292" r="3.667"/>
		<circle fill="#FFFFFF" cx="377.25" cy="153.793" r="3.667"/>
		<circle fill="#FFFFFF" cx="282.845" cy="120.542" r="3.667"/>
		<circle fill="#FFFFFF" cx="299.595" cy="95.749" r="3.667"/>
		<circle fill="#FFFFFF" cx="282.845" cy="129.625" r="3.667"/>
		<circle fill="#FFFFFF" cx="283.053" cy="138.25" r="3.667"/>
		<circle fill="#FFFFFF" cx="346.25" cy="3.667" r="3.667"/>
		<circle fill="#FFFFFF" cx="336.917" cy="9.75" r="3.667"/>
		<circle fill="#FFFFFF" cx="318.5" cy="16.75" r="3.667"/>
		<circle fill="#FFFFFF" cx="519.5" cy="100.875" r="3.667"/>
		<circle fill="#FFFFFF" cx="469.833" cy="61.958" r="3.667"/>
		<circle fill="#FFFFFF" cx="487.918" cy="142.375" r="3.667"/>
		<circle fill="#FFFFFF" cx="473.418" cy="150.126" r="3.667"/>
		<circle fill="#FFFFFF" cx="454.667" cy="158.708" r="3.667"/>
		<circle fill="#FFFFFF" cx="436.25" cy="165.125" r="3.667"/>
		<circle fill="#FFFFFF" cx="432.583" cy="174.458" r="3.667"/>
		<circle fill="#FFFFFF" cx="383.5" cy="192.708" r="3.667"/>
		<circle fill="#FFFFFF" cx="337.74" cy="307.303" r="3.667"/>
		<circle fill="#FFFFFF" cx="334.073" cy="319.47" r="3.667"/>
		<circle fill="#FFFFFF" cx="326.345" cy="264.405" r="3.667"/>
		<circle fill="#FFFFFF" cx="165.595" cy="269.406" r="3.667"/>
		<circle fill="#FFFFFF" cx="155.595" cy="282.906" r="3.667"/>
		<circle fill="#FFFFFF" cx="220.345" cy="274.781" r="3.667"/>
		<circle fill="#FFFFFF" cx="224.012" cy="293.281" r="3.667"/>
		<circle fill="#FFFFFF" cx="210.824" cy="296.136" r="3.667"/>
		<circle fill="#FFFFFF" cx="180.074" cy="300.615" r="3.667"/>
		<circle fill="#FFFFFF" cx="77.417" cy="137.166" r="3.667"/>
		<circle fill="#FFFFFF" cx="164.417" cy="133.499" r="3.667"/>
		<circle fill="#FFFFFF" cx="132.667" cy="95.749" r="3.667"/>
		<circle fill="#FFFFFF" cx="213.167" cy="137.166" r="3.667"/>
		<circle fill="#FFFFFF" cx="162.917" cy="78.666" r="3.667"/>
		<circle fill="#FFFFFF" cx="190.5" cy="65.25" r="3.667"/>
		<circle fill="#FFFFFF" cx="199.126" cy="25.75" r="3.667"/>
		<circle fill="#FFFFFF" cx="164.417" cy="143.2" r="3.667"/>
		<circle fill="#FFFFFF" cx="145.333" cy="223.221" r="3.667"/>
		<circle fill="#FFFFFF" cx="138.637" cy="263.589" r="3.667"/>
	</g>
	<g>
		<circle fill="#FFFFFF" cx="1125.536" cy="147.667" r="3.667"/>
		<circle fill="#FFFFFF" cx="890.536" cy="179.666" r="3.667"/>
		<circle fill="#FFFFFF" cx="937.411" cy="196.791" r="3.667"/>
		<circle fill="#FFFFFF" cx="883.608" cy="186.406" r="3.667"/>
		<circle fill="#FFFFFF" cx="861.858" cy="210.906" r="3.667"/>
		<circle fill="#FFFFFF" cx="851.608" cy="236.156" r="3.667"/>
		<circle fill="#FFFFFF" cx="846.358" cy="242.406" r="3.667"/>
		<circle fill="#FFFFFF" cx="839.858" cy="267.447" r="3.667"/>
		<circle fill="#FFFFFF" cx="808.192" cy="236.156" r="3.667"/>
		<circle fill="#FFFFFF" cx="802.858" cy="252.156" r="3.667"/>
		<circle fill="#FFFFFF" cx="609.702" cy="316.72" r="3.667"/>
		<circle fill="#FFFFFF" cx="763.37" cy="287.387" r="3.667"/>
		<circle fill="#FFFFFF" cx="638.869" cy="275.781" r="3.667"/>
		<circle fill="#FFFFFF" cx="672.869" cy="263.406" r="3.667"/>
		<circle fill="#FFFFFF" cx="677.369" cy="252.781" r="3.667"/>
		<circle fill="#FFFFFF" cx="682.744" cy="243.531" r="3.667"/>
		<circle fill="#FFFFFF" cx="698.244" cy="243.531" r="3.667"/>
		<circle fill="#FFFFFF" cx="739.869" cy="204.125" r="3.667"/>
		<circle fill="#FFFFFF" cx="670.869" cy="204.125" r="3.667"/>
		<circle fill="#FFFFFF" cx="636.368" cy="174.459" r="3.667"/>
		<circle fill="#FFFFFF" cx="591.868" cy="140.625" r="3.667"/>
		<circle fill="#FFFFFF" cx="617.036" cy="16.625" r="3.667"/>
		<circle fill="#FFFFFF" cx="699.286" cy="39.875" r="3.667"/>
		<circle fill="#FFFFFF" cx="699.286" cy="49.208" r="3.667"/>
		<circle fill="#FFFFFF" cx="702.954" cy="56.542" r="3.667"/>
		<circle fill="#FFFFFF" cx="711.12" cy="73.875" r="3.667"/>
		<circle fill="#FFFFFF" cx="725.62" cy="103.208" r="3.667"/>
		<circle fill="#FFFFFF" cx="725.62" cy="112.042" r="3.667"/>
		<circle fill="#FFFFFF" cx="725.62" cy="120.542" r="3.667"/>
		<circle fill="#FFFFFF" cx="730.454" cy="133.292" r="3.667"/>
		<circle fill="#FFFFFF" cx="751.954" cy="153.793" r="3.667"/>
		<circle fill="#FFFFFF" cx="846.358" cy="120.542" r="3.667"/>
		<circle fill="#FFFFFF" cx="829.608" cy="95.749" r="3.667"/>
		<circle fill="#FFFFFF" cx="846.358" cy="129.625" r="3.667"/>
		<circle fill="#FFFFFF" cx="846.149" cy="138.25" r="3.667"/>
		<circle fill="#FFFFFF" cx="782.953" cy="3.667" r="3.667"/>
		<circle fill="#FFFFFF" cx="792.286" cy="9.75" r="3.667"/>
		<circle fill="#FFFFFF" cx="810.704" cy="16.75" r="3.667"/>
		<circle fill="#FFFFFF" cx="609.702" cy="100.875" r="3.667"/>
		<circle fill="#FFFFFF" cx="659.37" cy="61.958" r="3.667"/>
		<circle fill="#FFFFFF" cx="641.285" cy="142.375" r="3.667"/>
		<circle fill="#FFFFFF" cx="655.785" cy="150.126" r="3.667"/>
		<circle fill="#FFFFFF" cx="674.536" cy="158.708" r="3.667"/>
		<circle fill="#FFFFFF" cx="692.953" cy="165.125" r="3.667"/>
		<circle fill="#FFFFFF" cx="696.62" cy="174.458" r="3.667"/>
		<circle fill="#FFFFFF" cx="745.703" cy="192.708" r="3.667"/>
		<circle fill="#FFFFFF" cx="791.462" cy="307.303" r="3.667"/>
		<circle fill="#FFFFFF" cx="795.129" cy="319.47" r="3.667"/>
		<circle fill="#FFFFFF" cx="802.858" cy="264.405" r="3.667"/>
		<circle fill="#FFFFFF" cx="963.608" cy="269.406" r="3.667"/>
		<circle fill="#FFFFFF" cx="973.608" cy="282.906" r="3.667"/>
		<circle fill="#FFFFFF" cx="908.858" cy="274.781" r="3.667"/>
		<circle fill="#FFFFFF" cx="905.19" cy="293.281" r="3.667"/>
		<circle fill="#FFFFFF" cx="918.378" cy="296.136" r="3.667"/>
		<circle fill="#FFFFFF" cx="949.128" cy="300.615" r="3.667"/>
		<circle fill="#FFFFFF" cx="1051.786" cy="137.166" r="3.667"/>
		<circle fill="#FFFFFF" cx="964.786" cy="133.499" r="3.667"/>
		<circle fill="#FFFFFF" cx="996.536" cy="95.749" r="3.667"/>
		<circle fill="#FFFFFF" cx="916.036" cy="137.166" r="3.667"/>
		<circle fill="#FFFFFF" cx="966.286" cy="78.666" r="3.667"/>
		<circle fill="#FFFFFF" cx="938.702" cy="65.25" r="3.667"/>
		<circle fill="#FFFFFF" cx="930.077" cy="25.75" r="3.667"/>
		<circle fill="#FFFFFF" cx="964.786" cy="143.2" r="3.667"/>
		<circle fill="#FFFFFF" cx="983.87" cy="223.221" r="3.667"/>
		<circle fill="#FFFFFF" cx="990.565" cy="263.589" r="3.667"/>
	</g>
</g>
<g>
	<polygon fill="#FFFFFF" points="952.54,179.703 890.536,179.703 890.536,178.703 952.125,178.703 983.662,147.167 
		1125.536,147.167 1125.536,148.167 984.076,148.167 	"/>
	<polygon fill="#FFFFFF" points="875.868,96.208 829.608,96.208 829.608,95.208 875.454,95.208 892.496,78.166 966.286,78.166 
		966.286,79.166 892.91,79.166 	"/>
	<polygon fill="#FFFFFF" points="710.621,74.375 663.996,27.75 644.452,27.75 644.452,17.125 617.037,17.125 617.037,16.125 
		645.452,16.125 645.452,26.75 664.41,26.75 711.328,73.668 	"/>
	<polygon fill="#FFFFFF" points="748.494,40.375 699.287,40.375 699.287,39.375 748.08,39.375 783.371,4.084 784.078,4.791 	"/>
	<polygon fill="#FFFFFF" points="753.222,49.521 699.287,49.521 699.287,48.521 752.808,48.521 791.933,9.397 792.64,10.104 	"/>
	<polygon fill="#FFFFFF" points="771.513,56.646 702.953,56.646 702.953,55.646 771.099,55.646 810.349,16.397 811.056,17.104 	"/>
	<polygon fill="#FFFFFF" points="846.358,121.5 794.037,121.5 776.246,103.708 725.62,103.708 725.62,102.708 776.66,102.708 
		794.451,120.5 846.358,120.5 	"/>
	<polygon fill="#FFFFFF" points="846.358,130.083 794.037,130.083 776.496,112.542 725.62,112.542 725.62,111.542 776.91,111.542 
		794.451,129.083 846.358,129.083 	"/>
	<polygon fill="#FFFFFF" points="846.15,138.396 791.099,138.396 773.746,121.042 725.62,121.042 725.62,120.042 774.16,120.042 
		791.513,137.396 846.15,137.396 	"/>
	<polygon fill="#FFFFFF" points="851.318,236.447 819.496,204.625 670.869,204.625 670.869,203.625 819.91,203.625 852.025,235.74 	
		"/>
	<polygon fill="#FFFFFF" points="983.464,223.625 946.746,186.906 883.608,186.906 883.608,185.906 947.16,185.906 984.171,222.918 
			"/>
	<polygon fill="#FFFFFF" points="639.077,275.989 638.37,275.282 677.996,235.656 808.19,235.656 808.19,236.656 678.41,236.656 	
		"/>
	<polygon fill="#FFFFFF" points="839.009,268.296 814.746,244.031 698.244,244.031 698.244,243.031 815.16,243.031 839.716,267.589 
			"/>
	<polygon fill="#FFFFFF" points="802.858,252.698 691.203,252.698 682.39,243.885 683.097,243.178 691.617,251.698 802.858,251.698 
			"/>
	<polygon fill="#FFFFFF" points="802.858,264.51 688.39,264.51 677.015,253.135 677.722,252.428 688.804,263.51 802.858,263.51 	"/>
	<polygon fill="#FFFFFF" points="908.858,275.261 684.015,275.261 672.515,263.76 673.222,263.053 684.429,274.261 908.858,274.261 
			"/>
	<polygon fill="#FFFFFF" points="891.06,308.118 791.462,308.118 791.462,307.118 890.646,307.118 904.837,292.928 905.544,293.635 
			"/>
	<polygon fill="#FFFFFF" points="895.66,319.97 795.129,319.97 795.129,318.97 895.246,318.97 918.228,295.986 918.935,296.693 	"/>
	<polygon fill="#FFFFFF" points="903.44,328.832 787.588,328.832 776.111,317.354 609.703,317.354 609.703,316.354 776.525,316.354 
		788.002,327.832 903.027,327.832 930.746,300.115 949.128,300.115 949.128,301.115 931.16,301.115 	"/>
	<polygon fill="#FFFFFF" points="238.667,179.703 176.663,179.703 145.126,148.167 3.667,148.167 3.667,147.167 145.541,147.167 
		177.077,178.703 238.667,178.703 	"/>
	<polygon fill="#FFFFFF" points="299.595,96.208 253.335,96.208 236.293,79.166 162.917,79.166 162.917,78.166 236.708,78.166 
		253.749,95.208 299.595,95.208 	"/>
	<polygon fill="#FFFFFF" points="418.583,74.375 417.875,73.668 464.793,26.75 483.751,26.75 483.751,16.125 512.167,16.125 
		512.167,17.125 484.751,17.125 484.751,27.75 465.208,27.75 	"/>
	<polygon fill="#FFFFFF" points="429.917,40.375 380.709,40.375 345.125,4.791 345.833,4.084 381.124,39.375 429.917,39.375 	"/>
	<polygon fill="#FFFFFF" points="429.917,49.521 375.98,49.521 336.563,10.104 337.27,9.397 376.394,48.521 429.917,48.521 	"/>
	<polygon fill="#FFFFFF" points="426.25,56.646 357.689,56.646 318.146,17.104 318.853,16.397 358.103,55.646 426.25,55.646 	"/>
	<polygon fill="#FFFFFF" points="730.224,133.52 649.912,53.208 479.291,53.208 398.978,133.52 398.271,132.813 478.876,52.208 
		650.326,52.208 730.931,132.813 	"/>
	<polygon fill="#FFFFFF" points="335.166,121.5 282.845,121.5 282.845,120.5 334.751,120.5 352.543,102.708 403.583,102.708 
		403.583,103.708 352.958,103.708 	"/>
	<polygon fill="#FFFFFF" points="335.167,130.083 282.845,130.083 282.845,129.083 334.752,129.083 352.293,111.542 
		403.583,111.542 403.583,112.542 352.708,112.542 	"/>
	<polygon fill="#FFFFFF" points="338.104,138.396 283.053,138.396 283.053,137.396 337.689,137.396 355.043,120.042 
		403.583,120.042 403.583,121.042 355.458,121.042 	"/>
	<polygon fill="#FFFFFF" points="899.405,154.293 721.746,154.293 640.89,73.438 488.313,73.438 407.457,154.293 229.798,154.293 
		212.649,137.695 187.918,112.964 159.879,112.964 135.177,137.666 77.417,137.666 77.417,136.666 134.763,136.666 159.465,111.964 
		188.332,111.964 213.351,136.982 230.203,153.293 407.043,153.293 487.898,72.438 641.304,72.438 722.16,153.293 899,153.293 
		915.858,136.977 940.871,111.964 969.738,111.964 994.44,136.666 1051.786,136.666 1051.786,137.666 994.026,137.666 
		969.324,112.964 941.285,112.964 916.56,137.689 	"/>
	<polygon fill="#FFFFFF" points="692.349,165.729 627.996,101.375 501.208,101.375 436.854,165.729 436.147,165.021 
		500.793,100.375 628.41,100.375 693.056,165.021 	"/>
	<polygon fill="#FFFFFF" points="674.536,159.167 622.787,159.167 604.746,141.125 524.458,141.125 506.416,159.167 
		454.667,159.167 454.667,158.167 506.002,158.167 524.043,140.125 605.16,140.125 623.201,158.167 674.536,158.167 	"/>
	<polygon fill="#FFFFFF" points="277.885,236.447 277.178,235.74 309.293,203.625 458.334,203.625 458.334,204.625 309.708,204.625 
			"/>
	<polygon fill="#FFFFFF" points="145.738,223.625 145.031,222.918 182.043,185.906 245.595,185.906 245.595,186.906 
		182.458,186.906 	"/>
	<polygon fill="#FFFFFF" points="990.421,263.734 938.496,211.808 840.843,211.808 822.246,193.209 671.076,193.209 
		620.603,243.683 508.6,243.683 458.127,193.209 306.958,193.209 288.359,211.808 190.708,211.808 138.781,263.734 138.074,263.027 
		190.293,210.808 287.945,210.808 306.543,192.209 458.541,192.209 509.014,242.683 620.189,242.683 670.662,192.209 
		822.66,192.209 841.257,210.808 938.91,210.808 991.128,263.027 	"/>
	<polygon fill="#FFFFFF" points="490.126,275.989 450.793,236.656 321.011,236.656 321.011,235.656 451.207,235.656 
		490.833,275.282 	"/>
	<polygon fill="#FFFFFF" points="290.193,268.296 289.486,267.589 314.043,243.031 430.959,243.031 430.959,244.031 
		314.458,244.031 	"/>
	<polygon fill="#FFFFFF" points="438,252.698 326.345,252.698 326.345,251.698 437.585,251.698 446.104,243.178 446.813,243.885 	
		"/>
	<polygon fill="#FFFFFF" points="440.812,264.51 326.345,264.51 326.345,263.51 440.398,263.51 451.479,252.428 452.188,253.135 	
		"/>
	<polygon fill="#FFFFFF" points="445.187,275.261 220.345,275.261 220.345,274.261 444.773,274.261 455.979,263.053 456.688,263.76 
			"/>
	<polygon fill="#FFFFFF" points="337.74,308.118 238.143,308.118 223.658,293.635 224.365,292.928 238.557,307.118 337.74,307.118 	
		"/>
	<polygon fill="#FFFFFF" points="334.073,319.97 233.543,319.97 210.267,296.693 210.974,295.986 233.958,318.97 334.073,318.97 	
		"/>
	<polygon fill="#FFFFFF" points="341.614,328.832 225.761,328.832 198.043,301.115 180.074,301.115 180.074,300.115 
		198.458,300.115 226.175,327.832 341.2,327.832 352.678,316.354 519.5,316.354 519.5,317.354 353.092,317.354 	"/>
	<polygon fill="#FFFFFF" points="789.919,87.947 710.913,87.947 660.33,37.364 634.453,37.364 634.453,24.25 494.75,24.25 
		494.75,37.364 468.874,37.364 418.29,87.947 339.283,87.947 308.293,56.958 229.627,56.958 198.772,26.104 199.479,25.396 
		230.042,55.958 308.708,55.958 339.697,86.947 417.876,86.947 468.459,36.364 493.75,36.364 493.75,23.25 635.453,23.25 
		635.453,36.364 660.744,36.364 711.327,86.947 789.505,86.947 820.496,55.958 899.162,55.958 929.723,25.396 930.43,26.104 
		899.576,56.958 820.91,56.958 	"/>
	<polygon fill="#FFFFFF" points="792.285,96.124 707.246,96.124 657.33,46.207 630.203,46.207 630.203,29.886 499,29.886 
		499,46.207 471.874,46.207 421.957,96.124 336.917,96.124 306.543,65.75 190.5,65.75 190.5,64.75 306.958,64.75 337.332,95.124 
		421.543,95.124 471.459,45.207 498,45.207 498,28.886 631.203,28.886 631.203,45.207 657.744,45.207 707.66,95.124 791.871,95.124 
		822.246,64.75 938.703,64.75 938.703,65.75 822.66,65.75 	"/>
	<polygon fill="#FFFFFF" points="892.433,143.975 723.496,143.975 642.635,63.115 486.567,63.115 405.708,143.975 236.769,143.975 
		189.043,96.249 132.667,96.249 132.667,95.249 189.458,95.249 237.183,142.975 405.293,142.975 486.153,62.115 643.049,62.115 
		723.91,142.975 892.019,142.975 939.746,95.249 996.536,95.249 996.536,96.249 940.16,96.249 	"/>
	<polygon fill="#FFFFFF" points="916.513,166.146 719.746,166.146 632.63,79.03 496.573,79.03 409.458,166.146 212.69,166.146 
		180.543,133.999 164.417,133.999 164.417,132.999 180.958,132.999 213.104,165.146 409.043,165.146 496.159,78.03 633.044,78.03 
		720.16,165.146 916.099,165.146 948.246,132.999 964.786,132.999 964.786,133.999 948.66,133.999 	"/>
	<polygon fill="#FFFFFF" points="916.447,175.163 716.746,175.163 629.387,87.805 499.815,87.805 412.458,175.163 212.756,175.163 
		181.293,143.7 164.417,143.7 164.417,142.7 181.708,142.7 213.17,174.163 412.043,174.163 499.401,86.805 629.801,86.805 
		717.16,174.163 916.033,174.163 947.496,142.7 964.786,142.7 964.786,143.7 947.91,143.7 	"/>
	<polygon fill="#FFFFFF" points="641.285,142.875 629.387,142.875 611.233,124.721 517.97,124.721 499.815,142.875 487.918,142.875 
		487.918,141.875 499.401,141.875 517.556,123.721 611.647,123.721 629.801,141.875 641.285,141.875 	"/>
	<polygon fill="#FFFFFF" points="655.785,150.626 626.156,150.626 607.129,131.6 522.073,131.6 503.047,150.626 473.418,150.626 
		473.418,149.626 502.633,149.626 521.659,130.6 607.543,130.6 626.57,149.626 655.785,149.626 	"/>
	<polygon fill="#FFFFFF" points="614.119,180.292 515.084,180.292 500.793,166.001 482.583,166.001 473.625,174.959 
		432.583,174.959 432.583,173.959 473.211,173.959 482.169,165.001 501.208,165.001 515.499,179.292 613.705,179.292 
		627.996,165.001 647.033,165.001 655.992,173.959 696.62,173.959 696.62,174.959 655.578,174.959 646.619,166.001 628.41,166.001 	
		"/>
	<polygon fill="#FFFFFF" points="617.138,194.396 512.064,194.396 492.481,174.813 493.188,174.105 512.478,193.396 
		616.724,193.396 636.015,174.105 636.722,174.813 	"/>
	<polygon fill="#FFFFFF" points="620.951,204.917 508.251,204.917 486.46,183.125 301.093,183.125 286.927,197.291 191.792,197.291 
		191.792,196.291 286.513,196.291 300.679,182.125 486.874,182.125 508.666,203.917 620.537,203.917 642.329,182.125 
		828.522,182.125 842.688,196.291 937.411,196.291 937.411,197.291 842.275,197.291 828.109,183.125 642.743,183.125 	"/>
	<polygon fill="#FFFFFF" points="621.511,255.561 507.691,255.561 466.793,214.662 311.296,214.662 283.198,242.76 282.491,242.053 
		310.882,213.662 467.208,213.662 508.104,254.561 621.097,254.561 661.996,213.662 818.32,213.662 846.711,242.053 846.004,242.76 
		817.906,214.662 662.41,214.662 	"/>
	<polygon fill="#FFFFFF" points="963.608,269.906 856.647,269.906 813.119,226.377 669.409,226.377 629.908,265.879 
		499.295,265.879 459.794,226.377 316.084,226.377 272.554,269.906 165.595,269.906 165.595,268.906 272.14,268.906 315.67,225.377 
		460.208,225.377 499.709,264.879 629.494,264.879 668.995,225.377 813.533,225.377 857.062,268.906 963.608,268.906 	"/>
	<polygon fill="#FFFFFF" points="774.757,303.984 354.445,303.984 333.866,283.406 155.595,283.406 155.595,282.406 334.28,282.406 
		354.859,302.984 774.343,302.984 794.922,282.406 973.608,282.406 973.608,283.406 795.336,283.406 	"/>
	<rect x="365.833" y="286.887" fill="#FFFFFF" width="397.536" height="1"/>
</g>
</svg>
